<mxfile host="app.diagrams.net" modified="2023-08-01T10:26:33.621Z" agent="Mozilla/5.0 (Windows NT 10.0; Win64; x64) AppleWebKit/537.36 (KHTML, like Gecko) Chrome/115.0.0.0 Safari/537.36 Edg/115.0.1901.188" etag="b9RP9F8Xntes29ktNBur" version="21.6.6" type="github">
  <diagram name="第 1 页" id="OGliJOE4tW2DUMZxxRDU">
    <mxGraphModel dx="1379" dy="756" grid="1" gridSize="10" guides="1" tooltips="1" connect="1" arrows="1" fold="1" page="1" pageScale="1" pageWidth="827" pageHeight="1169" math="0" shadow="0">
      <root>
        <mxCell id="0" />
        <mxCell id="1" parent="0" />
        <mxCell id="7R4Kz0LJVm2sexOzA-uK-1" value="Robot" style="shape=umlLifeline;perimeter=lifelinePerimeter;whiteSpace=wrap;html=1;container=1;dropTarget=0;collapsible=0;recursiveResize=0;outlineConnect=0;portConstraint=eastwest;newEdgeStyle={&quot;edgeStyle&quot;:&quot;elbowEdgeStyle&quot;,&quot;elbow&quot;:&quot;vertical&quot;,&quot;curved&quot;:0,&quot;rounded&quot;:0};" parent="1" vertex="1">
          <mxGeometry x="947" y="60" width="100" height="870" as="geometry" />
        </mxCell>
        <mxCell id="7R4Kz0LJVm2sexOzA-uK-2" value="查看文件目录" style="shape=umlFrame;whiteSpace=wrap;html=1;pointerEvents=0;width=170;height=30;" parent="1" vertex="1">
          <mxGeometry x="10" y="10" width="1260" height="930" as="geometry" />
        </mxCell>
        <mxCell id="7R4Kz0LJVm2sexOzA-uK-3" value="OTA" style="shape=umlLifeline;perimeter=lifelinePerimeter;whiteSpace=wrap;html=1;container=1;dropTarget=0;collapsible=0;recursiveResize=0;outlineConnect=0;portConstraint=eastwest;newEdgeStyle={&quot;edgeStyle&quot;:&quot;elbowEdgeStyle&quot;,&quot;elbow&quot;:&quot;vertical&quot;,&quot;curved&quot;:0,&quot;rounded&quot;:0};" parent="1" vertex="1">
          <mxGeometry x="671" y="60" width="100" height="870" as="geometry" />
        </mxCell>
        <mxCell id="7R4Kz0LJVm2sexOzA-uK-8" value="" style="html=1;points=[];perimeter=orthogonalPerimeter;outlineConnect=0;targetShapes=umlLifeline;portConstraint=eastwest;newEdgeStyle={&quot;edgeStyle&quot;:&quot;elbowEdgeStyle&quot;,&quot;elbow&quot;:&quot;vertical&quot;,&quot;curved&quot;:0,&quot;rounded&quot;:0};" parent="7R4Kz0LJVm2sexOzA-uK-3" vertex="1">
          <mxGeometry x="50" y="190" width="10" height="40" as="geometry" />
        </mxCell>
        <mxCell id="7R4Kz0LJVm2sexOzA-uK-9" value="查询是否在线" style="html=1;align=left;spacingLeft=2;endArrow=block;rounded=0;edgeStyle=orthogonalEdgeStyle;curved=0;rounded=0;" parent="7R4Kz0LJVm2sexOzA-uK-3" target="7R4Kz0LJVm2sexOzA-uK-8" edge="1">
          <mxGeometry relative="1" as="geometry">
            <mxPoint x="51" y="185" as="sourcePoint" />
            <Array as="points">
              <mxPoint x="51" y="190" />
              <mxPoint x="81" y="190" />
              <mxPoint x="81" y="210" />
            </Array>
          </mxGeometry>
        </mxCell>
        <mxCell id="7R4Kz0LJVm2sexOzA-uK-22" value="" style="html=1;points=[];perimeter=orthogonalPerimeter;outlineConnect=0;targetShapes=umlLifeline;portConstraint=eastwest;newEdgeStyle={&quot;edgeStyle&quot;:&quot;elbowEdgeStyle&quot;,&quot;elbow&quot;:&quot;vertical&quot;,&quot;curved&quot;:0,&quot;rounded&quot;:0};" parent="7R4Kz0LJVm2sexOzA-uK-3" vertex="1">
          <mxGeometry x="45" y="460" width="10" height="30" as="geometry" />
        </mxCell>
        <mxCell id="k5PXEWsf904mykeDzKS9-10" value="" style="html=1;points=[];perimeter=orthogonalPerimeter;outlineConnect=0;targetShapes=umlLifeline;portConstraint=eastwest;newEdgeStyle={&quot;edgeStyle&quot;:&quot;elbowEdgeStyle&quot;,&quot;elbow&quot;:&quot;vertical&quot;,&quot;curved&quot;:0,&quot;rounded&quot;:0};" parent="7R4Kz0LJVm2sexOzA-uK-3" vertex="1">
          <mxGeometry x="33" y="670" width="10" height="50" as="geometry" />
        </mxCell>
        <mxCell id="dUjvd-HKNAqpHXVFM26k-44" value="" style="html=1;points=[];perimeter=orthogonalPerimeter;outlineConnect=0;targetShapes=umlLifeline;portConstraint=eastwest;newEdgeStyle={&quot;edgeStyle&quot;:&quot;elbowEdgeStyle&quot;,&quot;elbow&quot;:&quot;vertical&quot;,&quot;curved&quot;:0,&quot;rounded&quot;:0};" vertex="1" parent="7R4Kz0LJVm2sexOzA-uK-3">
          <mxGeometry x="45" y="260" width="10" height="20" as="geometry" />
        </mxCell>
        <mxCell id="7R4Kz0LJVm2sexOzA-uK-14" value="" style="html=1;points=[];perimeter=orthogonalPerimeter;outlineConnect=0;targetShapes=umlLifeline;portConstraint=eastwest;newEdgeStyle={&quot;edgeStyle&quot;:&quot;elbowEdgeStyle&quot;,&quot;elbow&quot;:&quot;vertical&quot;,&quot;curved&quot;:0,&quot;rounded&quot;:0};" parent="7R4Kz0LJVm2sexOzA-uK-3" vertex="1">
          <mxGeometry x="43" y="310" width="10" height="20" as="geometry" />
        </mxCell>
        <mxCell id="7R4Kz0LJVm2sexOzA-uK-4" value="后端" style="shape=umlLifeline;perimeter=lifelinePerimeter;whiteSpace=wrap;html=1;container=1;dropTarget=0;collapsible=0;recursiveResize=0;outlineConnect=0;portConstraint=eastwest;newEdgeStyle={&quot;edgeStyle&quot;:&quot;elbowEdgeStyle&quot;,&quot;elbow&quot;:&quot;vertical&quot;,&quot;curved&quot;:0,&quot;rounded&quot;:0};" parent="1" vertex="1">
          <mxGeometry x="277" y="60" width="100" height="860" as="geometry" />
        </mxCell>
        <mxCell id="7R4Kz0LJVm2sexOzA-uK-20" value="" style="html=1;points=[];perimeter=orthogonalPerimeter;outlineConnect=0;targetShapes=umlLifeline;portConstraint=eastwest;newEdgeStyle={&quot;edgeStyle&quot;:&quot;elbowEdgeStyle&quot;,&quot;elbow&quot;:&quot;vertical&quot;,&quot;curved&quot;:0,&quot;rounded&quot;:0};" parent="7R4Kz0LJVm2sexOzA-uK-4" vertex="1">
          <mxGeometry x="43" y="570" width="10" height="40" as="geometry" />
        </mxCell>
        <mxCell id="7R4Kz0LJVm2sexOzA-uK-17" value="" style="html=1;points=[];perimeter=orthogonalPerimeter;outlineConnect=0;targetShapes=umlLifeline;portConstraint=eastwest;newEdgeStyle={&quot;edgeStyle&quot;:&quot;elbowEdgeStyle&quot;,&quot;elbow&quot;:&quot;vertical&quot;,&quot;curved&quot;:0,&quot;rounded&quot;:0};" parent="7R4Kz0LJVm2sexOzA-uK-4" vertex="1">
          <mxGeometry x="43" y="440" width="10" height="20" as="geometry" />
        </mxCell>
        <mxCell id="7R4Kz0LJVm2sexOzA-uK-35" value="" style="html=1;points=[];perimeter=orthogonalPerimeter;outlineConnect=0;targetShapes=umlLifeline;portConstraint=eastwest;newEdgeStyle={&quot;edgeStyle&quot;:&quot;elbowEdgeStyle&quot;,&quot;elbow&quot;:&quot;vertical&quot;,&quot;curved&quot;:0,&quot;rounded&quot;:0};" parent="7R4Kz0LJVm2sexOzA-uK-4" vertex="1">
          <mxGeometry x="43" y="330" width="10" height="30" as="geometry" />
        </mxCell>
        <mxCell id="k5PXEWsf904mykeDzKS9-13" value="" style="html=1;points=[];perimeter=orthogonalPerimeter;outlineConnect=0;targetShapes=umlLifeline;portConstraint=eastwest;newEdgeStyle={&quot;edgeStyle&quot;:&quot;elbowEdgeStyle&quot;,&quot;elbow&quot;:&quot;vertical&quot;,&quot;curved&quot;:0,&quot;rounded&quot;:0};" parent="7R4Kz0LJVm2sexOzA-uK-4" vertex="1">
          <mxGeometry x="33" y="664" width="10" height="61" as="geometry" />
        </mxCell>
        <mxCell id="k5PXEWsf904mykeDzKS9-14" value="" style="html=1;points=[];perimeter=orthogonalPerimeter;outlineConnect=0;targetShapes=umlLifeline;portConstraint=eastwest;newEdgeStyle={&quot;edgeStyle&quot;:&quot;elbowEdgeStyle&quot;,&quot;elbow&quot;:&quot;vertical&quot;,&quot;curved&quot;:0,&quot;rounded&quot;:0};" parent="7R4Kz0LJVm2sexOzA-uK-4" vertex="1">
          <mxGeometry x="33" y="760" width="10" height="60" as="geometry" />
        </mxCell>
        <mxCell id="dUjvd-HKNAqpHXVFM26k-61" value="" style="html=1;points=[];perimeter=orthogonalPerimeter;outlineConnect=0;targetShapes=umlLifeline;portConstraint=eastwest;newEdgeStyle={&quot;edgeStyle&quot;:&quot;elbowEdgeStyle&quot;,&quot;elbow&quot;:&quot;vertical&quot;,&quot;curved&quot;:0,&quot;rounded&quot;:0};" vertex="1" parent="7R4Kz0LJVm2sexOzA-uK-4">
          <mxGeometry x="40" y="170" width="10" height="20" as="geometry" />
        </mxCell>
        <mxCell id="dUjvd-HKNAqpHXVFM26k-40" value="" style="html=1;points=[];perimeter=orthogonalPerimeter;outlineConnect=0;targetShapes=umlLifeline;portConstraint=eastwest;newEdgeStyle={&quot;edgeStyle&quot;:&quot;elbowEdgeStyle&quot;,&quot;elbow&quot;:&quot;vertical&quot;,&quot;curved&quot;:0,&quot;rounded&quot;:0};" vertex="1" parent="7R4Kz0LJVm2sexOzA-uK-4">
          <mxGeometry x="43" y="230" width="10" height="30" as="geometry" />
        </mxCell>
        <mxCell id="7R4Kz0LJVm2sexOzA-uK-11" value="" style="html=1;points=[];perimeter=orthogonalPerimeter;outlineConnect=0;targetShapes=umlLifeline;portConstraint=eastwest;newEdgeStyle={&quot;edgeStyle&quot;:&quot;elbowEdgeStyle&quot;,&quot;elbow&quot;:&quot;vertical&quot;,&quot;curved&quot;:0,&quot;rounded&quot;:0};" parent="1" vertex="1">
          <mxGeometry x="992" y="340" width="10" height="30" as="geometry" />
        </mxCell>
        <mxCell id="7R4Kz0LJVm2sexOzA-uK-12" value="1.4 TCP下发查看我文件目录指令" style="html=1;verticalAlign=bottom;endArrow=block;edgeStyle=elbowEdgeStyle;elbow=vertical;curved=0;rounded=0;startArrow=none;" parent="1" edge="1">
          <mxGeometry x="-0.0902" relative="1" as="geometry">
            <mxPoint x="726" y="340" as="sourcePoint" />
            <Array as="points">
              <mxPoint x="957" y="340" />
              <mxPoint x="927" y="330" />
              <mxPoint x="797" y="350" />
              <mxPoint x="757" y="350" />
              <mxPoint x="797" y="320" />
              <mxPoint x="967" y="310" />
            </Array>
            <mxPoint as="offset" />
            <mxPoint x="992" y="340" as="targetPoint" />
          </mxGeometry>
        </mxCell>
        <mxCell id="7R4Kz0LJVm2sexOzA-uK-13" value="1.5 http上报目录结构" style="html=1;verticalAlign=bottom;endArrow=open;dashed=1;endSize=8;edgeStyle=elbowEdgeStyle;elbow=vertical;curved=0;rounded=0;startArrow=none;" parent="1" edge="1">
          <mxGeometry x="-0.017" y="20" relative="1" as="geometry">
            <mxPoint x="725.5" y="370" as="targetPoint" />
            <Array as="points">
              <mxPoint x="835" y="370" />
              <mxPoint x="890" y="500" />
              <mxPoint x="850" y="470" />
              <mxPoint x="870" y="480" />
              <mxPoint x="900" y="440" />
            </Array>
            <mxPoint as="offset" />
            <mxPoint x="990" y="370" as="sourcePoint" />
          </mxGeometry>
        </mxCell>
        <mxCell id="7R4Kz0LJVm2sexOzA-uK-15" value="1.6&amp;nbsp; 通知目录结构" style="html=1;verticalAlign=bottom;endArrow=open;dashed=1;endSize=8;edgeStyle=elbowEdgeStyle;elbow=vertical;curved=0;rounded=0;" parent="1" source="7R4Kz0LJVm2sexOzA-uK-14" target="7R4Kz0LJVm2sexOzA-uK-4" edge="1">
          <mxGeometry relative="1" as="geometry">
            <mxPoint x="685" y="480" as="sourcePoint" />
            <mxPoint x="318" y="410" as="targetPoint" />
            <Array as="points">
              <mxPoint x="580" y="390" />
              <mxPoint x="555" y="470" />
              <mxPoint x="635" y="500" />
              <mxPoint x="545" y="490" />
              <mxPoint x="425" y="480" />
              <mxPoint x="365" y="520" />
              <mxPoint x="565" y="480" />
            </Array>
          </mxGeometry>
        </mxCell>
        <mxCell id="7R4Kz0LJVm2sexOzA-uK-26" value="" style="html=1;points=[];perimeter=orthogonalPerimeter;outlineConnect=0;targetShapes=umlLifeline;portConstraint=eastwest;newEdgeStyle={&quot;edgeStyle&quot;:&quot;elbowEdgeStyle&quot;,&quot;elbow&quot;:&quot;vertical&quot;,&quot;curved&quot;:0,&quot;rounded&quot;:0};" parent="1" vertex="1">
          <mxGeometry x="992" y="550" width="10" height="30" as="geometry" />
        </mxCell>
        <mxCell id="7R4Kz0LJVm2sexOzA-uK-27" value="2.2&amp;nbsp; TCP文件下载指令" style="html=1;verticalAlign=bottom;endArrow=block;edgeStyle=elbowEdgeStyle;elbow=vertical;curved=0;rounded=0;" parent="1" edge="1">
          <mxGeometry x="0.0943" y="10" relative="1" as="geometry">
            <mxPoint x="725" y="550" as="sourcePoint" />
            <Array as="points">
              <mxPoint x="785" y="550" />
              <mxPoint x="835" y="540" />
              <mxPoint x="790" y="620" />
              <mxPoint x="960" y="610" />
            </Array>
            <mxPoint as="offset" />
            <mxPoint x="990" y="550" as="targetPoint" />
          </mxGeometry>
        </mxCell>
        <mxCell id="k5PXEWsf904mykeDzKS9-1" value="1.2 在线状态响应" style="html=1;verticalAlign=bottom;endArrow=open;dashed=1;endSize=8;edgeStyle=elbowEdgeStyle;elbow=vertical;curved=0;rounded=0;" parent="1" target="7R4Kz0LJVm2sexOzA-uK-4" edge="1" source="7R4Kz0LJVm2sexOzA-uK-3">
          <mxGeometry relative="1" as="geometry">
            <mxPoint x="325" y="255" as="targetPoint" />
            <Array as="points">
              <mxPoint x="620" y="290" />
              <mxPoint x="579" y="225" />
              <mxPoint x="599" y="235" />
              <mxPoint x="629" y="195" />
            </Array>
            <mxPoint as="offset" />
            <mxPoint x="710" y="270" as="sourcePoint" />
          </mxGeometry>
        </mxCell>
        <mxCell id="k5PXEWsf904mykeDzKS9-6" value="OSS" style="shape=umlLifeline;perimeter=lifelinePerimeter;whiteSpace=wrap;html=1;container=1;dropTarget=0;collapsible=0;recursiveResize=0;outlineConnect=0;portConstraint=eastwest;newEdgeStyle={&quot;edgeStyle&quot;:&quot;elbowEdgeStyle&quot;,&quot;elbow&quot;:&quot;vertical&quot;,&quot;curved&quot;:0,&quot;rounded&quot;:0};" parent="1" vertex="1">
          <mxGeometry x="1120" y="60" width="100" height="870" as="geometry" />
        </mxCell>
        <mxCell id="k5PXEWsf904mykeDzKS9-15" value="" style="html=1;points=[];perimeter=orthogonalPerimeter;outlineConnect=0;targetShapes=umlLifeline;portConstraint=eastwest;newEdgeStyle={&quot;edgeStyle&quot;:&quot;elbowEdgeStyle&quot;,&quot;elbow&quot;:&quot;vertical&quot;,&quot;curved&quot;:0,&quot;rounded&quot;:0};" parent="k5PXEWsf904mykeDzKS9-6" vertex="1">
          <mxGeometry x="33" y="760" width="10" height="54" as="geometry" />
        </mxCell>
        <mxCell id="dUjvd-HKNAqpHXVFM26k-74" value="" style="html=1;points=[];perimeter=orthogonalPerimeter;outlineConnect=0;targetShapes=umlLifeline;portConstraint=eastwest;newEdgeStyle={&quot;edgeStyle&quot;:&quot;elbowEdgeStyle&quot;,&quot;elbow&quot;:&quot;vertical&quot;,&quot;curved&quot;:0,&quot;rounded&quot;:0};" vertex="1" parent="k5PXEWsf904mykeDzKS9-6">
          <mxGeometry x="45" y="520" width="10" height="30" as="geometry" />
        </mxCell>
        <mxCell id="k5PXEWsf904mykeDzKS9-7" value="2.3 上传OSS" style="html=1;verticalAlign=bottom;endArrow=block;edgeStyle=elbowEdgeStyle;elbow=vertical;curved=0;rounded=0;" parent="1" edge="1">
          <mxGeometry x="0.0769" y="10" relative="1" as="geometry">
            <mxPoint x="1002" y="580" as="sourcePoint" />
            <Array as="points">
              <mxPoint x="1062" y="580" />
              <mxPoint x="1112" y="570" />
              <mxPoint x="1067" y="650" />
              <mxPoint x="1237" y="640" />
            </Array>
            <mxPoint as="offset" />
            <mxPoint x="1170" y="580" as="targetPoint" />
          </mxGeometry>
        </mxCell>
        <mxCell id="k5PXEWsf904mykeDzKS9-8" value="3.3 HTTP请求下载日志列表" style="html=1;verticalAlign=bottom;startArrow=oval;endArrow=block;startSize=8;edgeStyle=elbowEdgeStyle;elbow=vertical;curved=0;rounded=0;" parent="1" edge="1">
          <mxGeometry x="-0.0222" y="10" relative="1" as="geometry">
            <mxPoint x="320.5" y="730" as="sourcePoint" />
            <mxPoint x="704" y="730" as="targetPoint" />
            <Array as="points">
              <mxPoint x="390.5" y="730" />
            </Array>
            <mxPoint as="offset" />
          </mxGeometry>
        </mxCell>
        <mxCell id="k5PXEWsf904mykeDzKS9-9" value="3.4 返回下载日志列表" style="html=1;verticalAlign=bottom;endArrow=open;dashed=1;endSize=8;edgeStyle=elbowEdgeStyle;elbow=vertical;curved=0;rounded=0;startArrow=none;" parent="1" edge="1" source="k5PXEWsf904mykeDzKS9-10">
          <mxGeometry x="0.0566" y="-10" relative="1" as="geometry">
            <mxPoint x="314.32352941176464" y="779.9999999999998" as="targetPoint" />
            <Array as="points">
              <mxPoint x="468" y="780" />
              <mxPoint x="328" y="790" />
              <mxPoint x="984" y="815" />
              <mxPoint x="944" y="785" />
              <mxPoint x="964" y="795" />
              <mxPoint x="994" y="755" />
            </Array>
            <mxPoint as="offset" />
            <mxPoint x="813" y="785" as="sourcePoint" />
          </mxGeometry>
        </mxCell>
        <mxCell id="k5PXEWsf904mykeDzKS9-12" value="3.5 下载文件" style="html=1;verticalAlign=bottom;startArrow=oval;endArrow=block;startSize=8;edgeStyle=elbowEdgeStyle;elbow=vertical;curved=0;rounded=0;" parent="1" edge="1" target="k5PXEWsf904mykeDzKS9-15">
          <mxGeometry x="0.1952" y="10" relative="1" as="geometry">
            <mxPoint x="320.5" y="820" as="sourcePoint" />
            <mxPoint x="1155.5" y="820" as="targetPoint" />
            <Array as="points">
              <mxPoint x="390.5" y="820" />
            </Array>
            <mxPoint as="offset" />
          </mxGeometry>
        </mxCell>
        <mxCell id="k5PXEWsf904mykeDzKS9-16" value="3.6 文件数据" style="html=1;verticalAlign=bottom;endArrow=open;dashed=1;endSize=8;edgeStyle=elbowEdgeStyle;elbow=vertical;curved=0;rounded=0;startArrow=none;" parent="1" edge="1" target="k5PXEWsf904mykeDzKS9-14" source="k5PXEWsf904mykeDzKS9-15">
          <mxGeometry x="-0.1957" y="-10" relative="1" as="geometry">
            <mxPoint x="328" y="880" as="targetPoint" />
            <Array as="points">
              <mxPoint x="678" y="870" />
              <mxPoint x="949.5" y="850" />
              <mxPoint x="969.5" y="860" />
              <mxPoint x="999.5" y="820" />
            </Array>
            <mxPoint x="-1" as="offset" />
            <mxPoint x="818.5" y="850" as="sourcePoint" />
          </mxGeometry>
        </mxCell>
        <mxCell id="dUjvd-HKNAqpHXVFM26k-39" value="前端" style="shape=umlLifeline;perimeter=lifelinePerimeter;whiteSpace=wrap;html=1;container=1;dropTarget=0;collapsible=0;recursiveResize=0;outlineConnect=0;portConstraint=eastwest;newEdgeStyle={&quot;edgeStyle&quot;:&quot;elbowEdgeStyle&quot;,&quot;elbow&quot;:&quot;vertical&quot;,&quot;curved&quot;:0,&quot;rounded&quot;:0};" vertex="1" parent="1">
          <mxGeometry x="70" y="60" width="100" height="860" as="geometry" />
        </mxCell>
        <mxCell id="dUjvd-HKNAqpHXVFM26k-41" value="" style="html=1;points=[];perimeter=orthogonalPerimeter;outlineConnect=0;targetShapes=umlLifeline;portConstraint=eastwest;newEdgeStyle={&quot;edgeStyle&quot;:&quot;elbowEdgeStyle&quot;,&quot;elbow&quot;:&quot;vertical&quot;,&quot;curved&quot;:0,&quot;rounded&quot;:0};" vertex="1" parent="dUjvd-HKNAqpHXVFM26k-39">
          <mxGeometry x="45" y="130" width="10" height="40" as="geometry" />
        </mxCell>
        <mxCell id="dUjvd-HKNAqpHXVFM26k-42" value="输入uuid" style="html=1;align=left;spacingLeft=2;endArrow=block;rounded=0;edgeStyle=orthogonalEdgeStyle;curved=0;rounded=0;" edge="1" parent="dUjvd-HKNAqpHXVFM26k-39" source="dUjvd-HKNAqpHXVFM26k-41" target="dUjvd-HKNAqpHXVFM26k-41">
          <mxGeometry relative="1" as="geometry">
            <mxPoint x="50" y="110" as="sourcePoint" />
            <Array as="points">
              <mxPoint x="85" y="130" />
              <mxPoint x="85" y="150" />
            </Array>
          </mxGeometry>
        </mxCell>
        <mxCell id="dUjvd-HKNAqpHXVFM26k-45" value="" style="html=1;points=[];perimeter=orthogonalPerimeter;outlineConnect=0;targetShapes=umlLifeline;portConstraint=eastwest;newEdgeStyle={&quot;edgeStyle&quot;:&quot;elbowEdgeStyle&quot;,&quot;elbow&quot;:&quot;vertical&quot;,&quot;curved&quot;:0,&quot;rounded&quot;:0};" vertex="1" parent="dUjvd-HKNAqpHXVFM26k-39">
          <mxGeometry x="45" y="360" width="10" height="10" as="geometry" />
        </mxCell>
        <mxCell id="dUjvd-HKNAqpHXVFM26k-67" value="" style="html=1;points=[];perimeter=orthogonalPerimeter;outlineConnect=0;targetShapes=umlLifeline;portConstraint=eastwest;newEdgeStyle={&quot;edgeStyle&quot;:&quot;elbowEdgeStyle&quot;,&quot;elbow&quot;:&quot;vertical&quot;,&quot;curved&quot;:0,&quot;rounded&quot;:0};" vertex="1" parent="dUjvd-HKNAqpHXVFM26k-39">
          <mxGeometry x="45" y="390" width="10" height="50" as="geometry" />
        </mxCell>
        <mxCell id="dUjvd-HKNAqpHXVFM26k-48" value="" style="endArrow=classic;html=1;rounded=0;" edge="1" parent="1">
          <mxGeometry width="50" height="50" relative="1" as="geometry">
            <mxPoint x="125" y="130" as="sourcePoint" />
            <mxPoint x="326.5000000000002" y="130" as="targetPoint" />
          </mxGeometry>
        </mxCell>
        <mxCell id="dUjvd-HKNAqpHXVFM26k-50" value="建立websocket" style="edgeLabel;html=1;align=center;verticalAlign=middle;resizable=0;points=[];" vertex="1" connectable="0" parent="dUjvd-HKNAqpHXVFM26k-48">
          <mxGeometry x="-0.0306" relative="1" as="geometry">
            <mxPoint y="-10" as="offset" />
          </mxGeometry>
        </mxCell>
        <mxCell id="dUjvd-HKNAqpHXVFM26k-51" value="" style="endArrow=classic;html=1;rounded=0;" edge="1" parent="1" source="7R4Kz0LJVm2sexOzA-uK-1" target="7R4Kz0LJVm2sexOzA-uK-3">
          <mxGeometry width="50" height="50" relative="1" as="geometry">
            <mxPoint x="1000" y="120" as="sourcePoint" />
            <mxPoint x="726" y="120" as="targetPoint" />
            <Array as="points">
              <mxPoint x="880" y="140" />
            </Array>
          </mxGeometry>
        </mxCell>
        <mxCell id="dUjvd-HKNAqpHXVFM26k-52" value="建立TCP连接" style="edgeLabel;html=1;align=center;verticalAlign=middle;resizable=0;points=[];" vertex="1" connectable="0" parent="dUjvd-HKNAqpHXVFM26k-51">
          <mxGeometry x="-0.0306" relative="1" as="geometry">
            <mxPoint y="-10" as="offset" />
          </mxGeometry>
        </mxCell>
        <mxCell id="dUjvd-HKNAqpHXVFM26k-55" value="" style="endArrow=classic;html=1;rounded=0;" edge="1" parent="1">
          <mxGeometry width="50" height="50" relative="1" as="geometry">
            <mxPoint x="120" y="230" as="sourcePoint" />
            <mxPoint x="321.5000000000002" y="230" as="targetPoint" />
          </mxGeometry>
        </mxCell>
        <mxCell id="dUjvd-HKNAqpHXVFM26k-56" value="1.1 ws查看文件夹" style="edgeLabel;html=1;align=center;verticalAlign=middle;resizable=0;points=[];" vertex="1" connectable="0" parent="dUjvd-HKNAqpHXVFM26k-55">
          <mxGeometry x="-0.0306" relative="1" as="geometry">
            <mxPoint y="-10" as="offset" />
          </mxGeometry>
        </mxCell>
        <mxCell id="dUjvd-HKNAqpHXVFM26k-59" value="" style="endArrow=classic;html=1;rounded=0;" edge="1" parent="1" source="7R4Kz0LJVm2sexOzA-uK-4" target="7R4Kz0LJVm2sexOzA-uK-3">
          <mxGeometry width="50" height="50" relative="1" as="geometry">
            <mxPoint x="330" y="240" as="sourcePoint" />
            <mxPoint x="531.5000000000002" y="240" as="targetPoint" />
            <Array as="points">
              <mxPoint x="440" y="250" />
            </Array>
          </mxGeometry>
        </mxCell>
        <mxCell id="dUjvd-HKNAqpHXVFM26k-60" value="1.1. http查询设备是否在线" style="edgeLabel;html=1;align=center;verticalAlign=middle;resizable=0;points=[];" vertex="1" connectable="0" parent="dUjvd-HKNAqpHXVFM26k-59">
          <mxGeometry x="-0.0306" relative="1" as="geometry">
            <mxPoint y="-10" as="offset" />
          </mxGeometry>
        </mxCell>
        <mxCell id="dUjvd-HKNAqpHXVFM26k-62" value="" style="endArrow=classic;html=1;rounded=0;" edge="1" parent="1">
          <mxGeometry width="50" height="50" relative="1" as="geometry">
            <mxPoint x="330" y="320" as="sourcePoint" />
            <mxPoint x="716" y="319" as="targetPoint" />
            <Array as="points">
              <mxPoint x="435" y="319" />
            </Array>
          </mxGeometry>
        </mxCell>
        <mxCell id="dUjvd-HKNAqpHXVFM26k-63" value="1.3. http查询文件目录" style="edgeLabel;html=1;align=center;verticalAlign=middle;resizable=0;points=[];" vertex="1" connectable="0" parent="dUjvd-HKNAqpHXVFM26k-62">
          <mxGeometry x="-0.0306" relative="1" as="geometry">
            <mxPoint y="11" as="offset" />
          </mxGeometry>
        </mxCell>
        <mxCell id="7R4Kz0LJVm2sexOzA-uK-18" value="1.7 ws推送目录结构" style="html=1;align=left;spacingLeft=2;endArrow=block;rounded=0;edgeStyle=orthogonalEdgeStyle;curved=0;rounded=0;" parent="1" target="dUjvd-HKNAqpHXVFM26k-45" edge="1">
          <mxGeometry x="0.5408" y="-11" relative="1" as="geometry">
            <mxPoint x="320" y="420" as="sourcePoint" />
            <Array as="points">
              <mxPoint x="320" y="421" />
            </Array>
            <mxPoint x="119.5" y="440" as="targetPoint" />
            <mxPoint as="offset" />
          </mxGeometry>
        </mxCell>
        <mxCell id="dUjvd-HKNAqpHXVFM26k-68" value="选择文件" style="html=1;align=left;spacingLeft=2;endArrow=block;rounded=0;edgeStyle=orthogonalEdgeStyle;curved=0;rounded=0;" edge="1" parent="1" target="dUjvd-HKNAqpHXVFM26k-67">
          <mxGeometry relative="1" as="geometry">
            <mxPoint x="120" y="450" as="sourcePoint" />
            <Array as="points">
              <mxPoint x="150" y="450" />
              <mxPoint x="150" y="470" />
            </Array>
            <mxPoint x="130" y="470" as="targetPoint" />
          </mxGeometry>
        </mxCell>
        <mxCell id="dUjvd-HKNAqpHXVFM26k-69" value="" style="endArrow=classic;html=1;rounded=0;" edge="1" parent="1">
          <mxGeometry width="50" height="50" relative="1" as="geometry">
            <mxPoint x="125" y="500" as="sourcePoint" />
            <mxPoint x="321.5000000000002" y="500" as="targetPoint" />
          </mxGeometry>
        </mxCell>
        <mxCell id="dUjvd-HKNAqpHXVFM26k-70" value="2.1 ws下载文件" style="edgeLabel;html=1;align=center;verticalAlign=middle;resizable=0;points=[];" vertex="1" connectable="0" parent="dUjvd-HKNAqpHXVFM26k-69">
          <mxGeometry x="-0.0306" relative="1" as="geometry">
            <mxPoint y="-10" as="offset" />
          </mxGeometry>
        </mxCell>
        <mxCell id="dUjvd-HKNAqpHXVFM26k-72" value="" style="endArrow=classic;html=1;rounded=0;entryX=0.4;entryY=0;entryDx=0;entryDy=0;entryPerimeter=0;" edge="1" parent="1">
          <mxGeometry width="50" height="50" relative="1" as="geometry">
            <mxPoint x="330" y="520" as="sourcePoint" />
            <mxPoint x="720" y="520" as="targetPoint" />
            <Array as="points">
              <mxPoint x="443" y="520" />
            </Array>
          </mxGeometry>
        </mxCell>
        <mxCell id="dUjvd-HKNAqpHXVFM26k-73" value="2.1. http请求下载文件" style="edgeLabel;html=1;align=center;verticalAlign=middle;resizable=0;points=[];" vertex="1" connectable="0" parent="dUjvd-HKNAqpHXVFM26k-72">
          <mxGeometry x="-0.0306" relative="1" as="geometry">
            <mxPoint y="-10" as="offset" />
          </mxGeometry>
        </mxCell>
      </root>
    </mxGraphModel>
  </diagram>
</mxfile>
